<svg xmlns="http://www.w3.org/2000/svg" width="32" height="32" viewBox="314 4414 32 32"><g data-name="Frame 25"><path d="M314 4414h32v32h-32v-32z" fill="#fff" fill-rule="evenodd" data-name="Frame 25"/><g data-name="https://www.flaticon.com/free-icon/intelligence_2252188?related_id=2252188&amp;origin=search"><path d="M324.45 4417.565c4.164-1.307 8.438-.316 11.427 2.666a11.02 11.02 0 0 1 3.014 5.58c.347 1.68 1.074 3.358 2.17 4.982l.828 1.232a.66.66 0 0 1-.55 1.03l-2.224-.001v3.358c0 .978-.799 1.78-1.784 1.78h-1.606a.096.096 0 0 0-.098.097V4444h-9.943l-.042-.375c-.132-1.16-.449-2.232-.943-3.18a9.162 9.162 0 0 0-2.922-3.325 11.03 11.03 0 0 1-4.777-9.081c0-4.78 3.06-9.082 7.45-10.474Zm-6.604 10.47c0 3.353 1.648 6.487 4.413 8.393a10.038 10.038 0 0 1 3.188 3.628c.486.936.816 1.978.985 3.096h8.35v-4.868c0-.518.423-.94.943-.94h1.606a.938.938 0 0 0 .939-.937v-3.543a.66.66 0 0 1 .66-.658h2.067l-.639-.945c-1.154-1.716-1.928-3.496-2.295-5.285a10.158 10.158 0 0 0-2.782-5.15c-2.765-2.75-6.718-3.67-10.578-2.455-4.038 1.278-6.857 5.251-6.857 9.663Z" fill="#191919" fill-rule="evenodd"/><path d="M324.45 4417.565c4.164-1.307 8.438-.316 11.427 2.666a11.02 11.02 0 0 1 3.014 5.58c.347 1.68 1.074 3.358 2.17 4.982l.828 1.232a.66.66 0 0 1-.55 1.03l-2.224-.001v3.358c0 .978-.799 1.78-1.784 1.78h-1.606a.096.096 0 0 0-.098.097V4444h-9.943l-.042-.375c-.132-1.16-.449-2.232-.943-3.18a9.162 9.162 0 0 0-2.922-3.325 11.03 11.03 0 0 1-4.777-9.081c0-4.78 3.06-9.082 7.45-10.474Zm-6.604 10.47c0 3.353 1.648 6.487 4.413 8.393a10.038 10.038 0 0 1 3.188 3.628c.486.936.816 1.978.985 3.096h8.35v-4.868c0-.518.423-.94.943-.94h1.606a.938.938 0 0 0 .939-.937v-3.543a.66.66 0 0 1 .66-.658h2.067l-.639-.945c-1.154-1.716-1.928-3.496-2.295-5.285a10.158 10.158 0 0 0-2.782-5.15c-2.765-2.75-6.718-3.67-10.578-2.455-4.038 1.278-6.857 5.251-6.857 9.663Z" stroke-linejoin="round" stroke-linecap="round" stroke-width=".5" stroke="#191919" fill="transparent"/></g><g data-name="https://www.flaticon.com/free-icon/intelligence_2252188?related_id=2252188&amp;origin=search"><path d="M320.598 4429.367v-2.708l1.839-.37c.118-.41.283-.802.486-1.178l-1.032-1.56 1.92-1.92 1.564 1.034c.376-.203.77-.367 1.175-.485l.373-1.835h2.714l.372 1.835c.414.122.807.282 1.18.485l1.564-1.034 1.919 1.915-1.032 1.561c.203.376.368.772.487 1.177l1.839.371v2.708l-1.84.371c-.118.41-.283.802-.486 1.177l1.032 1.56-1.92 1.916-1.564-1.034a6.298 6.298 0 0 1-1.18.486l-.371 1.834-2.714-.004-.373-1.83a6.053 6.053 0 0 1-1.175-.486l-1.564 1.034-1.92-1.915 1.032-1.557a6.171 6.171 0 0 1-.486-1.176l-1.84-.372Zm.85-.7 1.678.342.063.261c.127.502.326.987.597 1.439l.135.228-.943 1.421.943.94 1.425-.944.228.135c.452.274.938.472 1.437.595l.262.063.343 1.674h1.332l.342-1.67.258-.063a5.17 5.17 0 0 0 1.442-.595l.228-.14 1.429.946.943-.941-.943-1.421.135-.228c.27-.452.474-.937.596-1.439l.064-.257 1.678-.342v-1.328l-1.678-.342-.064-.257a5.339 5.339 0 0 0-.596-1.439l-.135-.227.943-1.422-.943-.94-1.43.944-.227-.139a5.3 5.3 0 0 0-1.442-.595l-.258-.063-.342-1.675h-1.332l-.343 1.68-.262.063a5.395 5.395 0 0 0-1.437.594l-.228.135-1.425-.945-.943.941.943 1.422-.135.227a5.081 5.081 0 0 0-.597 1.439l-.063.261-1.678.342v1.32Z" fill="#191919" fill-rule="evenodd"/><path d="M320.598 4429.367v-2.708l1.839-.37c.118-.41.283-.802.486-1.178l-1.032-1.56 1.92-1.92 1.564 1.034c.376-.203.77-.367 1.175-.485l.373-1.835h2.714l.372 1.835c.414.122.807.282 1.18.485l1.564-1.034 1.919 1.915-1.032 1.561c.203.376.368.772.487 1.177l1.839.371v2.708l-1.84.371c-.118.41-.283.802-.486 1.177l1.032 1.56-1.92 1.916-1.564-1.034a6.298 6.298 0 0 1-1.18.486l-.371 1.834-2.714-.004-.373-1.83a6.053 6.053 0 0 1-1.175-.486l-1.564 1.034-1.92-1.915 1.032-1.557a6.171 6.171 0 0 1-.486-1.176l-1.84-.372Zm.85-.7 1.678.342.063.261c.127.502.326.987.597 1.439l.135.228-.943 1.421.943.94 1.425-.944.228.135c.452.274.938.472 1.437.595l.262.063.343 1.674h1.332l.342-1.67.258-.063a5.17 5.17 0 0 0 1.442-.595l.228-.14 1.429.946.943-.941-.943-1.421.135-.228c.27-.452.474-.937.596-1.439l.064-.257 1.678-.342v-1.328l-1.678-.342-.064-.257a5.339 5.339 0 0 0-.596-1.439l-.135-.227.943-1.422-.943-.94-1.43.944-.227-.139a5.3 5.3 0 0 0-1.442-.595l-.258-.063-.342-1.675h-1.332l-.343 1.68-.262.063a5.395 5.395 0 0 0-1.437.594l-.228.135-1.425-.945-.943.941.943 1.422-.135.227a5.081 5.081 0 0 0-.597 1.439l-.063.261-1.678.342v1.32Z" stroke-linejoin="round" stroke-linecap="round" stroke-width=".5" stroke="#191919" fill="transparent"/></g><g data-name="https://www.flaticon.com/free-icon/intelligence_2252188?related_id=2252188&amp;origin=search"><path d="M325.155 4428.01a3.127 3.127 0 0 1 3.125-3.118c1.72 0 3.124 1.4 3.124 3.117a3.124 3.124 0 0 1-6.249 0Zm.846 0a2.28 2.28 0 0 0 4.557 0 2.28 2.28 0 0 0-4.557 0Z" fill="#191919" fill-rule="evenodd"/><path d="M325.155 4428.01a3.127 3.127 0 0 1 3.125-3.118c1.72 0 3.124 1.4 3.124 3.117a3.124 3.124 0 0 1-6.249 0Zm.846 0a2.28 2.28 0 0 0 4.557 0 2.28 2.28 0 0 0-4.557 0Z" stroke-linejoin="round" stroke-linecap="round" stroke-width=".5" stroke="#191919" fill="transparent"/></g></g></svg>