<svg xmlns="http://www.w3.org/2000/svg" width="39" height="26" viewBox="1 7 39 26"><g data-name="Frame 3"><g data-name="https://www.flaticon.com/free-icon/handshake_3439283?related_id=3439283"><path d="M10.75 14.108a.553.553 0 0 1-.385-.148.523.523 0 0 1-.014-.748c.1-.1.237-.159.38-.161a55.67 55.67 0 0 0 7.935-.656.533.533 0 0 1 .142-.01c.658.034 1.296.23 1.855.571a.517.517 0 0 1 .002.854.55.55 0 0 1-.667-.018 2.751 2.751 0 0 0-1.194-.345c-2.66.408-5.347.629-8.04.661Z" fill="#f94d1c" fill-rule="evenodd"/><path d="M10.75 14.108a.553.553 0 0 1-.385-.148.523.523 0 0 1-.014-.748c.1-.1.237-.159.38-.161a55.67 55.67 0 0 0 7.935-.656.533.533 0 0 1 .142-.01c.658.034 1.296.23 1.855.571a.517.517 0 0 1 .002.854.55.55 0 0 1-.667-.018 2.751 2.751 0 0 0-1.194-.345c-2.66.408-5.347.629-8.04.661Z" stroke-linejoin="round" stroke-linecap="round" stroke="#191919" fill="transparent"/></g><g data-name="https://www.flaticon.com/free-icon/handshake_3439283?related_id=3439283"><path d="M30.564 26.69a2.22 2.22 0 0 1-1.286-.407l-.117-.079a.527.527 0 0 1-.064-.052l-6.376-4.484a.535.535 0 0 1-.228-.344.517.517 0 0 1 .092-.4.537.537 0 0 1 .357-.215.554.554 0 0 1 .408.098l.433.302 5.967 4.2a.508.508 0 0 1 .05.041l.104.07a1.15 1.15 0 0 0 1.539-.207 1.073 1.073 0 0 0-.166-1.517l-8.528-6.784c-3.265 1.693-5.579.822-6.683.133a1.227 1.227 0 0 1-.43-.466 1.193 1.193 0 0 1 .06-1.21c.118-.18.282-.325.475-.423l4.882-2.531a2.713 2.713 0 0 1 2.04-.175l2.888.915a3.84 3.84 0 0 0 2.6-.091l1.258-.503a.553.553 0 0 1 .59.117.528.528 0 0 1 .157.374.518.518 0 0 1-.16.374.543.543 0 0 1-.176.114l-1.257.502a4.938 4.938 0 0 1-3.348.119l-2.885-.915a1.607 1.607 0 0 0-1.202.106l-4.882 2.532a.156.156 0 0 0-.093.14.142.142 0 0 0 .069.134c1.137.71 3.09 1.23 5.885-.338a.552.552 0 0 1 .612.048l8.808 7.008a2.106 2.106 0 0 1 .767 2.066 2.174 2.174 0 0 1-1.194 1.53c-.301.145-.631.22-.966.218Z" fill="#f94d1c" fill-rule="evenodd"/><path d="M30.564 26.69a2.22 2.22 0 0 1-1.286-.407l-.117-.079a.527.527 0 0 1-.064-.052l-6.376-4.484a.535.535 0 0 1-.228-.344.517.517 0 0 1 .092-.4.537.537 0 0 1 .357-.215.554.554 0 0 1 .408.098l.433.302 5.967 4.2a.508.508 0 0 1 .05.041l.104.07a1.15 1.15 0 0 0 1.539-.207 1.073 1.073 0 0 0-.166-1.517l-8.528-6.784c-3.265 1.693-5.579.822-6.683.133a1.227 1.227 0 0 1-.43-.466 1.193 1.193 0 0 1 .06-1.21c.118-.18.282-.325.475-.423l4.882-2.531a2.713 2.713 0 0 1 2.04-.175l2.888.915a3.84 3.84 0 0 0 2.6-.091l1.258-.503a.553.553 0 0 1 .59.117.528.528 0 0 1 .157.374.518.518 0 0 1-.16.374.543.543 0 0 1-.176.114l-1.257.502a4.938 4.938 0 0 1-3.348.119l-2.885-.915a1.607 1.607 0 0 0-1.202.106l-4.882 2.532a.156.156 0 0 0-.093.14.142.142 0 0 0 .069.134c1.137.71 3.09 1.23 5.885-.338a.552.552 0 0 1 .612.048l8.808 7.008a2.106 2.106 0 0 1 .767 2.066 2.174 2.174 0 0 1-1.194 1.53c-.301.145-.631.22-.966.218Z" stroke-linejoin="round" stroke-linecap="round" stroke="#191919" fill="transparent"/></g><g data-name="https://www.flaticon.com/free-icon/handshake_3439283?related_id=3439283"><path d="M28.323 29.142c-.46 0-.907-.139-1.281-.398l-5.855-4.057a.52.52 0 0 1-.12-.732.552.552 0 0 1 .748-.13l5.854 4.055c.245.157.543.215.832.162a1.14 1.14 0 0 0 .715-.446 1.09 1.09 0 0 0-.226-1.521l-5.836-4.107a.52.52 0 0 1-.1-.72.553.553 0 0 1 .73-.137l5.84 4.107c.38.269.662.648.808 1.083.146.436.146.905.002 1.34a2.172 2.172 0 0 1-.805 1.086c-.38.27-.836.415-1.306.416Z" fill="#f94d1c" fill-rule="evenodd"/><path d="M28.323 29.142c-.46 0-.907-.139-1.281-.398l-5.855-4.057a.52.52 0 0 1-.12-.732.552.552 0 0 1 .748-.13l5.854 4.055c.245.157.543.215.832.162a1.14 1.14 0 0 0 .715-.446 1.09 1.09 0 0 0-.226-1.521l-5.836-4.107a.52.52 0 0 1-.1-.72.553.553 0 0 1 .73-.137l5.84 4.107c.38.269.662.648.808 1.083.146.436.146.905.002 1.34a2.172 2.172 0 0 1-.805 1.086c-.38.27-.836.415-1.306.416Z" stroke-linejoin="round" stroke-linecap="round" stroke="#191919" fill="transparent"/></g><g data-name="https://www.flaticon.com/free-icon/handshake_3439283?related_id=3439283"><path d="M25.795 31.261a2.17 2.17 0 0 1-1.22-.374l-5.246-3.549a.52.52 0 0 1-.137-.736.552.552 0 0 1 .754-.134l5.247 3.55a1.08 1.08 0 0 0 .798.167 1.082 1.082 0 0 0 .686-.432 1.025 1.025 0 0 0-.26-1.442l-5.222-3.616a.535.535 0 0 1-.227-.343.517.517 0 0 1 .091-.4.537.537 0 0 1 .356-.216.554.554 0 0 1 .407.096l5.221 3.617c.46.32.773.805.87 1.348a2.067 2.067 0 0 1-.345 1.557c-.16.227-.364.422-.6.571a2.165 2.165 0 0 1-1.173.336Z" fill="#f94d1c" fill-rule="evenodd"/><path d="M25.795 31.261a2.17 2.17 0 0 1-1.22-.374l-5.246-3.549a.52.52 0 0 1-.137-.736.552.552 0 0 1 .754-.134l5.247 3.55a1.08 1.08 0 0 0 .798.167 1.082 1.082 0 0 0 .686-.432 1.025 1.025 0 0 0-.26-1.442l-5.222-3.616a.535.535 0 0 1-.227-.343.517.517 0 0 1 .091-.4.537.537 0 0 1 .356-.216.554.554 0 0 1 .407.096l5.221 3.617c.46.32.773.805.87 1.348a2.067 2.067 0 0 1-.345 1.557c-.16.227-.364.422-.6.571a2.165 2.165 0 0 1-1.173.336Z" stroke-linejoin="round" stroke-linecap="round" stroke="#191919" fill="transparent"/></g><g data-name="https://www.flaticon.com/free-icon/handshake_3439283?related_id=3439283"><path d="M22.7 33c-.379-.002-.75-.1-1.079-.287l-2.912-1.64a.518.518 0 0 1-.195-.72.553.553 0 0 1 .737-.195l2.912 1.64c.246.135.537.171.81.1a1.08 1.08 0 0 0 .652-.48c.138-.227.182-.496.123-.754a1.036 1.036 0 0 0-.44-.632l-3.722-2.517a.535.535 0 0 1-.225-.34.517.517 0 0 1 .088-.395.536.536 0 0 1 .349-.22.554.554 0 0 1 .405.086l3.72 2.516c.378.256.663.622.812 1.046.15.424.157.884.02 1.312-.136.429-.41.803-.78 1.07A2.19 2.19 0 0 1 22.7 33Z" fill="#f94d1c" fill-rule="evenodd"/><path d="M22.7 33c-.379-.002-.75-.1-1.079-.287l-2.912-1.64a.518.518 0 0 1-.195-.72.553.553 0 0 1 .737-.195l2.912 1.64c.246.135.537.171.81.1a1.08 1.08 0 0 0 .652-.48c.138-.227.182-.496.123-.754a1.036 1.036 0 0 0-.44-.632l-3.722-2.517a.535.535 0 0 1-.225-.34.517.517 0 0 1 .088-.395.536.536 0 0 1 .349-.22.554.554 0 0 1 .405.086l3.72 2.516c.378.256.663.622.812 1.046.15.424.157.884.02 1.312-.136.429-.41.803-.78 1.07A2.19 2.19 0 0 1 22.7 33Z" stroke-linejoin="round" stroke-linecap="round" stroke="#191919" fill="transparent"/></g><g data-name="https://www.flaticon.com/free-icon/handshake_3439283?related_id=3439283"><path d="M16.567 32.684c-.443 0-.876-.13-1.24-.376a2.134 2.134 0 0 1-.8-1 2.079 2.079 0 0 1-.076-1.266c.108-.42.344-.797.677-1.083l1.447-1.237c.215-.185.465-.326.736-.416a2.228 2.228 0 0 1 1.664.106c.256.123.486.295.674.505a2.08 2.08 0 0 1 .317 2.343c-.126.25-.302.475-.517.659l-1.447 1.24a2.2 2.2 0 0 1-1.435.525Zm1.444-4.433c-.265-.001-.522.093-.722.264l-1.447 1.24a1.073 1.073 0 0 0-.37.733 1.046 1.046 0 0 0 .269.775 1.105 1.105 0 0 0 1.176.308c.136-.045.262-.116.37-.209l1.446-1.24a1.045 1.045 0 0 0 .301-1.18 1.073 1.073 0 0 0-.4-.501c-.183-.124-.4-.19-.623-.19Z" fill="#f94d1c" fill-rule="evenodd"/><path d="M16.567 32.684c-.443 0-.876-.13-1.24-.376a2.134 2.134 0 0 1-.8-1 2.079 2.079 0 0 1-.076-1.266c.108-.42.344-.797.677-1.083l1.447-1.237c.215-.185.465-.326.736-.416a2.228 2.228 0 0 1 1.664.106c.256.123.486.295.674.505a2.08 2.08 0 0 1 .317 2.343c-.126.25-.302.475-.517.659l-1.447 1.24a2.2 2.2 0 0 1-1.435.525Zm1.444-4.433c-.265-.001-.522.093-.722.264l-1.447 1.24a1.073 1.073 0 0 0-.37.733 1.046 1.046 0 0 0 .269.775 1.105 1.105 0 0 0 1.176.308c.136-.045.262-.116.37-.209l1.446-1.24a1.045 1.045 0 0 0 .301-1.18 1.073 1.073 0 0 0-.4-.501c-.183-.124-.4-.19-.623-.19Z" stroke-linejoin="round" stroke-linecap="round" stroke="#191919" fill="transparent"/></g><g data-name="https://www.flaticon.com/free-icon/handshake_3439283?related_id=3439283"><path d="M13.288 31.244c-.049 0-.097 0-.145-.005a2.208 2.208 0 0 1-.822-.213 2.161 2.161 0 0 1-.674-.506 2.124 2.124 0 0 1-.433-.72 2.088 2.088 0 0 1 .102-1.635 2.14 2.14 0 0 1 .518-.664l2.417-2.072a2.228 2.228 0 0 1 2.4-.31c.256.124.485.295.674.505l-.392.367.407-.35c.19.21.334.455.426.72a2.08 2.08 0 0 1-.108 1.624c-.127.25-.303.474-.518.659l-2.419 2.071c-.395.341-.905.53-1.433.529Zm2.396-5.286c-.265 0-.521.093-.72.264l-2.417 2.072a1.081 1.081 0 0 0-.332.535 1.06 1.06 0 0 0 .026.624c.07.202.2.378.374.508a1.127 1.127 0 0 0 1.022.167 1.09 1.09 0 0 0 .37-.21l2.417-2.072a1.073 1.073 0 0 0 .37-.734 1.046 1.046 0 0 0-.27-.775l-.015-.018a1.084 1.084 0 0 0-.75-.359l-.075-.002Z" fill="#f94d1c" fill-rule="evenodd"/><path d="M13.288 31.244c-.049 0-.097 0-.145-.005a2.208 2.208 0 0 1-.822-.213 2.161 2.161 0 0 1-.674-.506 2.124 2.124 0 0 1-.433-.72 2.088 2.088 0 0 1 .102-1.635 2.14 2.14 0 0 1 .518-.664l2.417-2.072a2.228 2.228 0 0 1 2.4-.31c.256.124.485.295.674.505l-.392.367.407-.35c.19.21.334.455.426.72a2.08 2.08 0 0 1-.108 1.624c-.127.25-.303.474-.518.659l-2.419 2.071c-.395.341-.905.53-1.433.529Zm2.396-5.286c-.265 0-.521.093-.72.264l-2.417 2.072a1.081 1.081 0 0 0-.332.535 1.06 1.06 0 0 0 .026.624c.07.202.2.378.374.508a1.127 1.127 0 0 0 1.022.167 1.09 1.09 0 0 0 .37-.21l2.417-2.072a1.073 1.073 0 0 0 .37-.734 1.046 1.046 0 0 0-.27-.775l-.015-.018a1.084 1.084 0 0 0-.75-.359l-.075-.002Z" stroke-linejoin="round" stroke-linecap="round" stroke="#191919" fill="transparent"/></g><g data-name="https://www.flaticon.com/free-icon/handshake_3439283?related_id=3439283"><path d="M10.554 29.302c-.047 0-.095 0-.144-.004a2.208 2.208 0 0 1-.822-.214 2.161 2.161 0 0 1-.674-.505l-.06-.07a2.096 2.096 0 0 1-.535-1.54 2.11 2.11 0 0 1 .737-1.46l2.802-2.402a2.227 2.227 0 0 1 2.4-.31c.256.124.485.295.674.505l.061.069c.381.424.574.978.536 1.54a2.109 2.109 0 0 1-.737 1.46l-2.802 2.402c-.396.342-.907.53-1.436.53Zm2.737-5.665c-.265-.001-.521.093-.72.264l-2.803 2.402a1.055 1.055 0 0 0-.101 1.51l.061.068a1.113 1.113 0 0 0 1.545.097l2.803-2.4a1.073 1.073 0 0 0 .37-.735 1.046 1.046 0 0 0-.27-.775l-.06-.067a1.085 1.085 0 0 0-.75-.361.875.875 0 0 0-.075-.003Z" fill="#f94d1c" fill-rule="evenodd"/><path d="M10.554 29.302c-.047 0-.095 0-.144-.004a2.208 2.208 0 0 1-.822-.214 2.161 2.161 0 0 1-.674-.505l-.06-.07a2.096 2.096 0 0 1-.535-1.54 2.11 2.11 0 0 1 .737-1.46l2.802-2.402a2.227 2.227 0 0 1 2.4-.31c.256.124.485.295.674.505l.061.069c.381.424.574.978.536 1.54a2.109 2.109 0 0 1-.737 1.46l-2.802 2.402c-.396.342-.907.53-1.436.53Zm2.737-5.665c-.265-.001-.521.093-.72.264l-2.803 2.402a1.055 1.055 0 0 0-.101 1.51l.061.068a1.113 1.113 0 0 0 1.545.097l2.803-2.4a1.073 1.073 0 0 0 .37-.735 1.046 1.046 0 0 0-.27-.775l-.06-.067a1.085 1.085 0 0 0-.75-.361.875.875 0 0 0-.075-.003Z" stroke-linejoin="round" stroke-linecap="round" stroke="#191919" fill="transparent"/></g><g data-name="https://www.flaticon.com/free-icon/handshake_3439283?related_id=3439283"><path d="M8.2 26.948c-.048 0-.097 0-.145-.005a2.225 2.225 0 0 1-1.192-.434 2.144 2.144 0 0 1-.744-1.009c-.14-.4-.156-.832-.045-1.241.11-.41.343-.777.668-1.058l1.755-1.503c.215-.185.465-.326.736-.416a2.227 2.227 0 0 1 1.664.106c.256.123.485.295.674.505l.02.021c.188.21.332.454.425.719a2.08 2.08 0 0 1-.109 1.624c-.126.251-.302.475-.517.66L9.636 26.42c-.397.341-.907.53-1.436.528Zm1.733-4.721c-.265-.001-.522.093-.72.264l-1.755 1.504a1.073 1.073 0 0 0-.37.734 1.046 1.046 0 0 0 .269.775 1.099 1.099 0 0 0 .757.379 1.128 1.128 0 0 0 .807-.26l1.755-1.503a1.073 1.073 0 0 0 .37-.734 1.046 1.046 0 0 0-.27-.775l-.018-.022a1.084 1.084 0 0 0-.752-.36l-.076-.002Z" fill="#f94d1c" fill-rule="evenodd"/><path d="M8.2 26.948c-.048 0-.097 0-.145-.005a2.225 2.225 0 0 1-1.192-.434 2.144 2.144 0 0 1-.744-1.009c-.14-.4-.156-.832-.045-1.241.11-.41.343-.777.668-1.058l1.755-1.503c.215-.185.465-.326.736-.416a2.227 2.227 0 0 1 1.664.106c.256.123.485.295.674.505l.02.021c.188.21.332.454.425.719a2.08 2.08 0 0 1-.109 1.624c-.126.251-.302.475-.517.66L9.636 26.42c-.397.341-.907.53-1.436.528Zm1.733-4.721c-.265-.001-.522.093-.72.264l-1.755 1.504a1.073 1.073 0 0 0-.37.734 1.046 1.046 0 0 0 .269.775 1.099 1.099 0 0 0 .757.379 1.128 1.128 0 0 0 .807-.26l1.755-1.503a1.073 1.073 0 0 0 .37-.734 1.046 1.046 0 0 0-.27-.775l-.018-.022a1.084 1.084 0 0 0-.752-.36l-.076-.002Z" stroke-linejoin="round" stroke-linecap="round" stroke="#191919" fill="transparent"/></g><g data-name="https://www.flaticon.com/free-icon/handshake_3439283?related_id=3439283"><path d="M7.217 24.026a.547.547 0 0 1-.325-.106l-1.85-1.375a.533.533 0 0 1-.21-.35.517.517 0 0 1 .106-.391.545.545 0 0 1 .57-.191.547.547 0 0 1 .19.09l1.85 1.375a.517.517 0 0 1-.01.854.55.55 0 0 1-.318.098Z" fill="#f94d1c" fill-rule="evenodd"/><path d="M7.217 24.026a.547.547 0 0 1-.325-.106l-1.85-1.375a.533.533 0 0 1-.21-.35.517.517 0 0 1 .106-.391.545.545 0 0 1 .57-.191.547.547 0 0 1 .19.09l1.85 1.375a.517.517 0 0 1-.01.854.55.55 0 0 1-.318.098Z" stroke-linejoin="round" stroke-linecap="round" stroke="#191919" fill="transparent"/></g><g data-name="https://www.flaticon.com/free-icon/handshake_3439283?related_id=3439283"><path d="M32.156 24.612a.551.551 0 0 1-.3-.09.517.517 0 0 1-.082-.814l3.038-2.967a.549.549 0 0 1 .76.006.523.523 0 0 1 .006.741l-3.039 2.968a.543.543 0 0 1-.383.156Z" fill="#f94d1c" fill-rule="evenodd"/><path d="M32.156 24.612a.551.551 0 0 1-.3-.09.517.517 0 0 1-.082-.814l3.038-2.967a.549.549 0 0 1 .76.006.523.523 0 0 1 .006.741l-3.039 2.968a.543.543 0 0 1-.383.156Z" stroke-linejoin="round" stroke-linecap="round" stroke="#191919" fill="transparent"/></g><g data-name="https://www.flaticon.com/free-icon/handshake_3439283?related_id=3439283"><path d="M36.3 23.515a.552.552 0 0 1-.462-.252l-6.613-10.504a.518.518 0 0 1 .13-.695l6.55-4.953a.548.548 0 0 1 .86.3l3.22 13.722a.517.517 0 0 1-.031.334.534.534 0 0 1-.23.248l-3.16 1.733a.549.549 0 0 1-.264.067Zm-5.898-10.906 6.086 9.665 2.352-1.29-2.942-12.53-5.496 4.155Z" fill="#f94d1c" fill-rule="evenodd"/><path d="M36.3 23.515a.552.552 0 0 1-.462-.252l-6.613-10.504a.518.518 0 0 1 .13-.695l6.55-4.953a.548.548 0 0 1 .86.3l3.22 13.722a.517.517 0 0 1-.031.334.534.534 0 0 1-.23.248l-3.16 1.733a.549.549 0 0 1-.264.067Zm-5.898-10.906 6.086 9.665 2.352-1.29-2.942-12.53-5.496 4.155Z" stroke-linejoin="round" stroke-linecap="round" stroke="#191919" fill="transparent"/></g><g data-name="https://www.flaticon.com/free-icon/handshake_3439283?related_id=3439283"><path d="M4.7 23.702a.552.552 0 0 1-.265-.067l-3.158-1.73a.534.534 0 0 1-.231-.249.517.517 0 0 1-.032-.334L4.236 7.601a.525.525 0 0 1 .346-.38.554.554 0 0 1 .514.08l6.55 4.953a.518.518 0 0 1 .13.695L5.162 23.453a.536.536 0 0 1-.462.25Zm-2.54-2.527 2.352 1.29 6.086-9.666-5.496-4.155-2.941 12.531Z" fill="#f94d1c" fill-rule="evenodd"/><path d="M4.7 23.702a.552.552 0 0 1-.265-.067l-3.158-1.73a.534.534 0 0 1-.231-.249.517.517 0 0 1-.032-.334L4.236 7.601a.525.525 0 0 1 .346-.38.554.554 0 0 1 .514.08l6.55 4.953a.518.518 0 0 1 .13.695L5.162 23.453a.536.536 0 0 1-.462.25Zm-2.54-2.527 2.352 1.29 6.086-9.666-5.496-4.155-2.941 12.531Z" stroke-linejoin="round" stroke-linecap="round" stroke="#191919" fill="transparent"/></g></g></svg>