<svg xmlns="http://www.w3.org/2000/svg" width="60" height="60" viewBox="1263 587.95 60 60"><g data-name="Icon"><path d="M1263 617.9a30 30 0 1 1 0 .1z" fill="#191919" fill-rule="evenodd" data-name="Ellipse 10"/><g data-name="dashicons:email-alt"><path d="M1302 625.2h-16.812c-.996 0-1.8-.804-1.8-1.8v-10.8c0-.996.804-1.8 1.8-1.8H1302c.996 0 1.8.804 1.8 1.8v10.8c0 .996-.804 1.8-1.8 1.8Zm.228-12.732c-.396-.396-.804-.204-1.14.084l-7.5 6.048-7.488-6.048c-.336-.288-.744-.48-1.14-.084-.396.396-.18.804.036 1.008l4.872 4.464-4.68 4.872c-.144.168-.24.432-.072.612.156.192.516.18.672.06l5.244-4.476 2.556 2.34 2.568-2.34 5.244 4.476c.156.12.516.132.672-.06.168-.18.072-.444-.072-.612l-4.68-4.872 4.872-4.464c.216-.204.432-.612.036-1.008Z" fill="#fff" fill-rule="evenodd" data-name="Vector"/></g></g></svg>