<svg xmlns="http://www.w3.org/2000/svg" width="32" height="32" viewBox="314 4309 32 32"><g data-name="Frame 24"><path d="M314 4309h32v32h-32v-32z" fill="#fff" fill-rule="evenodd" data-name="Frame 24"/><g data-name="https://www.flaticon.com/free-icon/vector_681630?related_id=681630"><path d="M331.535 4332.57c0 .211-.177.382-.396.382h-5.449v2.285h.905c.218 0 .396.17.396.381s-.178.382-.396.382h-1.301a.389.389 0 0 1-.396-.382v-3.048c0-.21.177-.382.396-.382h.514l-2.515-4.077a.37.37 0 0 1 0-.39l2.484-4.02a.404.404 0 0 1 .543-.133c.188.107.25.342.138.523l-2.364 3.825 2.635 4.272h4.41a.39.39 0 0 1 .396.382Z" fill="#191919" fill-rule="evenodd"/><path d="M331.535 4332.57s0 0 0 0c0 .211-.177.382-.396.382h-5.449v2.285h.905c.218 0 .396.17.396.381s-.178.382-.396.382h-1.301a.389.389 0 0 1-.396-.382v-3.048c0-.21.177-.382.396-.382h.514l-2.515-4.077a.37.37 0 0 1 0-.39l2.484-4.02a.404.404 0 0 1 .543-.133c.188.107.25.342.138.523l-2.364 3.825 2.635 4.272h4.41a.39.39 0 0 1 .396.382Z" stroke-linejoin="round" stroke-linecap="round" stroke-width=".5" stroke="#191919" fill="transparent"/></g><g data-name="https://www.flaticon.com/free-icon/vector_681630?related_id=681630"><path d="M344 4327.046v2.405c0 .211-.177.382-.396.382h-2.496a.389.389 0 0 1-.396-.382v-2.405c0-.21.177-.382.396-.382h.822c-.09-2.613-1.132-5.102-2.959-7.045a11.57 11.57 0 0 0-6.849-3.516v.684c0 .21-.177.382-.396.382h-.582l6.519 10.551a.37.37 0 0 1 0 .39l-2.514 4.078h.513c.219 0 .396.171.396.382v3.048c0 .211-.177.382-.396.382h-7.483a.389.389 0 0 1-.396-.382c0-.21.177-.381.396-.381h7.087v-2.286h-.806l-.008.001h-1.729a.389.389 0 0 1-.394-.42.39.39 0 0 1 .394-.344h1.504l2.635-4.272-5.988-9.692v7.064c.682.17 1.188.769 1.188 1.478 0 .842-.71 1.527-1.584 1.527-.873 0-1.584-.685-1.584-1.527 0-.71.506-1.308 1.188-1.478v-7.064l-2.808 4.545a.404.404 0 0 1-.543.133.374.374 0 0 1-.138-.523l3.22-5.21h-.583a.389.389 0 0 1-.396-.382v-.684a11.57 11.57 0 0 0-6.85 3.516c-1.826 1.943-2.868 4.432-2.958 7.045h.866c.219 0 .396.171.396.382v2.405c0 .211-.177.382-.396.382h-2.496a.389.389 0 0 1-.396-.382v-2.405c0-.21.177-.382.396-.382h.838c.09-2.803 1.205-5.474 3.164-7.558a12.273 12.273 0 0 1 4.571-3.054h-5.74c-.191.671-.83 1.166-1.586 1.166-.906 0-1.643-.71-1.643-1.583 0-.874.737-1.584 1.643-1.584.783 0 1.44.53 1.604 1.238h8.587v-.907c0-.211.177-.382.396-.382h2.496c.219 0 .396.17.396.382v.907h8.587c.165-.708.82-1.238 1.604-1.238.906 0 1.643.71 1.643 1.584 0 .873-.737 1.583-1.643 1.583-.757 0-1.395-.495-1.585-1.166h-5.741c1.73.66 3.296 1.698 4.571 3.054 1.96 2.084 3.074 4.755 3.164 7.558h.882c.219 0 .396.171.396.382Zm-2.539-11.411c0 .452.382.82.852.82s.851-.368.851-.82c0-.453-.382-.82-.851-.82-.47 0-.852.367-.852.82Zm-21.966 0c0-.453-.382-.82-.852-.82s-.851.367-.851.82c0 .452.382.82.851.82.47 0 .852-.368.852-.82Zm-1.703 11.793v1.642h1.704v-1.642h-1.704Zm12.686-1.425c-.436 0-.792.343-.792.763 0 .421.356.763.792.763.437 0 .792-.342.792-.763 0-.42-.355-.763-.792-.763Zm.852-11.24h-1.704v1.642h1.704v-1.642Zm11.878 12.665h-1.704v1.642h1.704v-1.642Z" fill="#191919" fill-rule="evenodd"/><path d="M344 4327.046v2.405c0 .211-.177.382-.396.382h-2.496a.389.389 0 0 1-.396-.382v-2.405c0-.21.177-.382.396-.382h.822c-.09-2.613-1.132-5.102-2.959-7.045a11.57 11.57 0 0 0-6.849-3.516v.684c0 .21-.177.382-.396.382h-.582l6.519 10.551a.37.37 0 0 1 0 .39l-2.514 4.078h.513c.219 0 .396.171.396.382v3.048c0 .211-.177.382-.396.382h-7.483a.389.389 0 0 1-.396-.382c0-.21.177-.381.396-.381h7.087v-2.286h-.806l-.008.001h-1.729a.389.389 0 0 1-.394-.42.39.39 0 0 1 .394-.344h1.504l2.635-4.272-5.988-9.692v7.064c.682.17 1.188.769 1.188 1.478 0 .842-.71 1.527-1.584 1.527-.873 0-1.584-.685-1.584-1.527 0-.71.506-1.308 1.188-1.478v-7.064l-2.808 4.545a.404.404 0 0 1-.543.133.374.374 0 0 1-.138-.523l3.22-5.21h-.583a.389.389 0 0 1-.396-.382v-.684a11.57 11.57 0 0 0-6.85 3.516c-1.826 1.943-2.868 4.432-2.958 7.045h.866c.219 0 .396.171.396.382v2.405c0 .211-.177.382-.396.382h-2.496a.389.389 0 0 1-.396-.382v-2.405c0-.21.177-.382.396-.382h.838c.09-2.803 1.205-5.474 3.164-7.558a12.273 12.273 0 0 1 4.571-3.054h-5.74c-.191.671-.83 1.166-1.586 1.166-.906 0-1.643-.71-1.643-1.583 0-.874.737-1.584 1.643-1.584.783 0 1.44.53 1.604 1.238h8.587v-.907c0-.211.177-.382.396-.382h2.496c.219 0 .396.17.396.382v.907h8.587c.165-.708.82-1.238 1.604-1.238.906 0 1.643.71 1.643 1.584 0 .873-.737 1.583-1.643 1.583-.757 0-1.395-.495-1.585-1.166h-5.741c1.73.66 3.296 1.698 4.571 3.054 1.96 2.084 3.074 4.755 3.164 7.558h.882c.219 0 .396.171.396.382Zm-2.539-11.411c0 .452.382.82.852.82s.851-.368.851-.82c0-.453-.382-.82-.851-.82-.47 0-.852.367-.852.82Zm-21.966 0c0-.453-.382-.82-.852-.82s-.851.367-.851.82c0 .452.382.82.851.82.47 0 .852-.368.852-.82Zm-1.703 11.793v1.642h1.704v-1.642h-1.704Zm12.686-1.425c-.436 0-.792.343-.792.763 0 .421.356.763.792.763.437 0 .792-.342.792-.763 0-.42-.355-.763-.792-.763Zm.852-11.24h-1.704v1.642h1.704v-1.642Zm11.878 12.665h-1.704v1.642h1.704v-1.642Z" stroke-linejoin="round" stroke-linecap="round" stroke-width=".5" stroke="#191919" fill="transparent"/></g></g></svg>