<svg xmlns="http://www.w3.org/2000/svg" width="16" height="20" viewBox="-8056.049 -4472 16 20"><g data-name="CompositeLayer"><path d="M-8044.523-4463.86c0 2.055-1.582 3.727-3.526 3.727-1.944 0-3.525-1.672-3.525-3.728 0-2.055 1.581-3.727 3.525-3.727s3.526 1.672 3.526 3.727Zm-1.108 0c0-1.41-1.085-2.557-2.418-2.557-1.333 0-2.417 1.147-2.417 2.556 0 1.41 1.084 2.557 2.417 2.557 1.333 0 2.418-1.147 2.418-2.557Z" fill="#191919" fill-rule="evenodd" data-name="https://www.flaticon.com/free-icon/location_1008001?term=location&amp;page=1&amp;position=46&amp;page=1&amp;position=46&amp;related_id=1008001&amp;origin=search"/><path d="M-8040.049-4463.541c0 4.57-4.087 8.373-6.283 10.415-.305.284-.569.529-.779.736-.263.26-.6.39-.938.39-.337 0-.675-.13-.938-.39-.21-.207-.474-.452-.779-.736-2.196-2.042-6.283-5.844-6.283-10.415 0-2.26.832-4.384 2.343-5.981 1.511-1.598 3.52-2.478 5.657-2.478s4.146.88 5.657 2.478c1.511 1.597 2.343 3.722 2.343 5.981Zm-1.108 0c0-4.018-3.092-7.287-6.892-7.287-3.8 0-6.892 3.269-6.892 7.287 0 4.041 3.843 7.615 5.907 9.535.312.29.581.54.803.76.102.1.262.1.364 0 .222-.22.491-.47.803-.76 2.065-1.92 5.907-5.494 5.907-9.535Z" fill="#191919" fill-rule="evenodd" data-name="https://www.flaticon.com/free-icon/location_1008001?term=location&amp;page=1&amp;position=46&amp;page=1&amp;position=46&amp;related_id=1008001&amp;origin=search"/></g></svg>