<svg xmlns="http://www.w3.org/2000/svg" width="32" height="32" viewBox="314 4099 32 32"><g data-name="Frame 23"><path d="M314 4099h32v32h-32v-32z" fill="#fff" fill-rule="evenodd" data-name="Frame 23"/><g data-name="https://www.flaticon.com/free-icon/motivation_4835292?related_id=4835292"><path d="M333.193 4119.94c-1.505 1.575-3.507 2.443-5.637 2.443a.39.39 0 0 1-.38-.399c0-.22.17-.398.38-.398 1.926 0 3.737-.785 5.099-2.21 1.207-1.262 1.871-2.94 1.871-4.726 0-.22.17-.399.381-.399.21 0 .381.179.381.399 0 1.998-.744 3.877-2.095 5.29Z" fill="#191919" fill-rule="evenodd"/><path d="M333.193 4119.94c-1.505 1.575-3.507 2.443-5.637 2.443a.39.39 0 0 1-.38-.399c0-.22.17-.398.38-.398 1.926 0 3.737-.785 5.099-2.21 1.207-1.262 1.871-2.94 1.871-4.726 0-.22.17-.399.381-.399.21 0 .381.179.381.399 0 1.998-.744 3.877-2.095 5.29Z" stroke-linejoin="round" stroke-linecap="round" stroke-width=".5" stroke="#191919" fill="transparent"/></g><g data-name="https://www.flaticon.com/free-icon/motivation_4835292?related_id=4835292"><path d="M317.435 4114.001h1.563c.21 0 .38.178.38.398a.39.39 0 0 1-.38.399h-1.236v12.404h3.444v-12.404h-.43a.39.39 0 0 1-.382-.399c0-.22.17-.398.381-.398h2.861c.24 0 .435.204.435.455v.279h.449c.404 0 .802-.152 1.122-.429a7.28 7.28 0 0 1 2.252-1.334c.999-.368 1.8-1.231 2.144-2.31l2.343-7.353a.434.434 0 0 1 .41-.309c1.763 0 3.198 1.5 3.198 3.346v1.668a.39.39 0 0 1-.38.399.39.39 0 0 1-.382-.399v-1.668c0-1.323-.968-2.414-2.202-2.538l-2.265 7.107c-.417 1.31-1.394 2.36-2.613 2.808a6.53 6.53 0 0 0-2.02 1.197 2.464 2.464 0 0 1-1.607.612h-.449v5.54a.39.39 0 0 1-.38.398.39.39 0 0 1-.381-.398v-6.274h-1.342v10.937h1.342v-2.804c0-.22.17-.398.38-.398s.381.178.381.398v2.072h.449c.58 0 1.151.217 1.607.612a6.463 6.463 0 0 0 4.223 1.588h6.487a1.648 1.648 0 0 1-.207-.805v-1.26c0-.48.202-.91.521-1.204a1.63 1.63 0 0 1-.521-1.203v-1.26c0-.48.202-.91.521-1.204a1.63 1.63 0 0 1-.521-1.203v-1.26c0-.48.202-.91.521-1.204a1.63 1.63 0 0 1-.521-1.203v-1.555c0-.19.038-.37.108-.532-.854-.137-1.51-.91-1.51-1.841v-1.595c0-.22.17-.399.38-.399s.381.178.381.399v1.595c0 .587.457 1.066 1.02 1.066h4.46c.844 0 1.531.718 1.531 1.601v1.261c0 .479-.202.91-.521 1.203.319.294.521.724.521 1.203v1.261c0 .48-.202.91-.521 1.203.319.294.521.724.521 1.203v1.261c0 .678-.405 1.26-.975 1.493.173.259.274.574.274.913v1.261c0 .884-.687 1.602-1.53 1.602H330.35a7.206 7.206 0 0 1-4.708-1.771 1.721 1.721 0 0 0-1.122-.43h-.449v.278a.446.446 0 0 1-.435.455h-1.668v1.012a.446.446 0 0 1-.435.455h-4.098a.446.446 0 0 1-.435-.455v-13.088c0-.25.195-.455.435-.455Zm24.803 1.396v-1.26c0-.445-.345-.806-.769-.806h-3.592a.5.5 0 0 0-.486.511v1.555c0 .444.345.805.77.805h3.308c.424 0 .77-.361.77-.805Zm0 3.667v-1.26c0-.444-.345-.805-.769-.805h-3.309c-.424 0-.769.36-.769.804v1.261c0 .444.345.805.77.805h3.308c.424 0 .77-.361.77-.805Zm0 2.406c0-.443-.345-.804-.769-.804h-3.309c-.424 0-.769.36-.769.804v1.261c0 .444.345.805.77.805h3.308c.424 0 .77-.36.77-.805v-1.26Zm-.7 4.928v-1.26c0-.444-.346-.805-.77-.805h-2.607c-.424 0-.77.36-.77.805v1.26c0 .444.346.805.77.805h2.607c.424 0 .77-.36.77-.805Z" fill="#191919" fill-rule="evenodd"/><path d="M317.435 4114.001h1.563c.21 0 .38.178.38.398a.39.39 0 0 1-.38.399h-1.236v12.404h3.444v-12.404h-.43a.39.39 0 0 1-.382-.399c0-.22.17-.398.381-.398h2.861c.24 0 .435.204.435.455v.279h.449c.404 0 .802-.152 1.122-.429a7.28 7.28 0 0 1 2.252-1.334c.999-.368 1.8-1.231 2.144-2.31l2.343-7.353a.434.434 0 0 1 .41-.309c1.763 0 3.198 1.5 3.198 3.346v1.668a.39.39 0 0 1-.38.399.39.39 0 0 1-.382-.399v-1.668c0-1.323-.968-2.414-2.202-2.538l-2.265 7.107c-.417 1.31-1.394 2.36-2.613 2.808a6.53 6.53 0 0 0-2.02 1.197 2.464 2.464 0 0 1-1.607.612h-.449v5.54a.39.39 0 0 1-.38.398.39.39 0 0 1-.381-.398v-6.274h-1.342v10.937h1.342v-2.804c0-.22.17-.398.38-.398s.381.178.381.398v2.072h.449c.58 0 1.151.217 1.607.612a6.463 6.463 0 0 0 4.223 1.588h6.487a1.648 1.648 0 0 1-.207-.805v-1.26c0-.48.202-.91.521-1.204a1.63 1.63 0 0 1-.521-1.203v-1.26c0-.48.202-.91.521-1.204a1.63 1.63 0 0 1-.521-1.203v-1.26c0-.48.202-.91.521-1.204a1.63 1.63 0 0 1-.521-1.203v-1.555c0-.19.038-.37.108-.532-.854-.137-1.51-.91-1.51-1.841v-1.595c0-.22.17-.399.38-.399s.381.178.381.399v1.595c0 .587.457 1.066 1.02 1.066h4.46c.844 0 1.531.718 1.531 1.601v1.261c0 .479-.202.91-.521 1.203.319.294.521.724.521 1.203v1.261c0 .48-.202.91-.521 1.203.319.294.521.724.521 1.203v1.261c0 .678-.405 1.26-.975 1.493.173.259.274.574.274.913v1.261c0 .884-.687 1.602-1.53 1.602H330.35a7.206 7.206 0 0 1-4.708-1.771 1.721 1.721 0 0 0-1.122-.43h-.449v.278a.446.446 0 0 1-.435.455h-1.668v1.012a.446.446 0 0 1-.435.455h-4.098a.446.446 0 0 1-.435-.455v-13.088c0-.25.195-.455.435-.455Zm24.803 1.396v-1.26c0-.445-.345-.806-.769-.806h-3.592a.5.5 0 0 0-.486.511v1.555c0 .444.345.805.77.805h3.308c.424 0 .77-.361.77-.805Zm0 3.667v-1.26c0-.444-.345-.805-.769-.805h-3.309c-.424 0-.769.36-.769.804v1.261c0 .444.345.805.77.805h3.308c.424 0 .77-.361.77-.805Zm0 2.406c0-.443-.345-.804-.769-.804h-3.309c-.424 0-.769.36-.769.804v1.261c0 .444.345.805.77.805h3.308c.424 0 .77-.36.77-.805v-1.26Zm-.7 4.928v-1.26c0-.444-.346-.805-.77-.805h-2.607c-.424 0-.77.36-.77.805v1.26c0 .444.346.805.77.805h2.607c.424 0 .77-.36.77-.805Z" stroke-linejoin="round" stroke-linecap="round" stroke-width=".5" stroke="#191919" fill="transparent"/></g><g data-name="https://www.flaticon.com/free-icon/motivation_4835292?related_id=4835292"><path d="M319.484 4126.532c-.597 0-1.082-.508-1.082-1.132 0-.624.485-1.131 1.082-1.131.597 0 1.082.507 1.082 1.131s-.485 1.132-1.082 1.132Zm0-1.467c-.177 0-.32.15-.32.335 0 .185.143.335.32.335.177 0 .32-.15.32-.335a.328.328 0 0 0-.32-.335Z" fill="#191919" fill-rule="evenodd"/><path d="M319.484 4126.532c-.597 0-1.082-.508-1.082-1.132 0-.624.485-1.131 1.082-1.131.597 0 1.082.507 1.082 1.131s-.485 1.132-1.082 1.132Zm0-1.467c-.177 0-.32.15-.32.335 0 .185.143.335.32.335.177 0 .32-.15.32-.335a.328.328 0 0 0-.32-.335Z" stroke-linejoin="round" stroke-linecap="round" stroke-width=".5" stroke="#191919" fill="transparent"/></g><g data-name="https://www.flaticon.com/free-icon/motivation_4835292?related_id=4835292"><path d="m342.057 4107.475-.446.233a2.723 2.723 0 0 0-1.182 1.236l-.223.467a.434.434 0 0 1-.391.253.434.434 0 0 1-.391-.253l-.223-.467a2.724 2.724 0 0 0-1.182-1.236l-.446-.233a.458.458 0 0 1-.242-.41c0-.174.093-.33.242-.409l.446-.233a2.723 2.723 0 0 0 1.182-1.237l.223-.466a.434.434 0 0 1 .391-.253c.167 0 .317.097.391.253l.223.466c.254.532.674.971 1.182 1.237l.446.233c.15.078.242.235.242.41a.458.458 0 0 1-.242.409Zm-2.242-1.8a3.514 3.514 0 0 1-1.329 1.39c.556.323 1.02.809 1.329 1.39a3.514 3.514 0 0 1 1.328-1.39 3.514 3.514 0 0 1-1.328-1.39Z" fill="#191919" fill-rule="evenodd"/><path d="m342.057 4107.475-.446.233a2.723 2.723 0 0 0-1.182 1.236l-.223.467a.434.434 0 0 1-.391.253.434.434 0 0 1-.391-.253l-.223-.467a2.724 2.724 0 0 0-1.182-1.236l-.446-.233a.458.458 0 0 1-.242-.41c0-.174.093-.33.242-.409l.446-.233a2.723 2.723 0 0 0 1.182-1.237l.223-.466a.434.434 0 0 1 .391-.253c.167 0 .317.097.391.253l.223.466c.254.532.674.971 1.182 1.237l.446.233c.15.078.242.235.242.41a.458.458 0 0 1-.242.409Zm-2.242-1.8a3.514 3.514 0 0 1-1.329 1.39c.556.323 1.02.809 1.329 1.39a3.514 3.514 0 0 1 1.328-1.39 3.514 3.514 0 0 1-1.328-1.39Z" stroke-linejoin="round" stroke-linecap="round" stroke-width=".5" stroke="#191919" fill="transparent"/></g><g data-name="https://www.flaticon.com/free-icon/motivation_4835292?related_id=4835292"><path d="m328.742 4110.033-.372.194c-.41.215-.75.57-.956 1l-.186.39a.424.424 0 0 1-.383.247.424.424 0 0 1-.383-.247l-.186-.39a2.204 2.204 0 0 0-.956-1l-.372-.194a.448.448 0 0 1-.236-.4c0-.171.09-.325.236-.401l.372-.195c.411-.215.75-.57.956-1l.186-.389a.424.424 0 0 1 .383-.248c.163 0 .31.095.383.248l.186.389c.206.43.545.785.956 1l.372.195c.146.076.237.23.237.4 0 .171-.09.324-.237.4Zm-1.897-1.427a2.997 2.997 0 0 1-.98 1.026c.399.254.738.608.98 1.026.243-.418.581-.772.98-1.026a2.997 2.997 0 0 1-.98-1.026Z" fill="#191919" fill-rule="evenodd"/><path d="m328.742 4110.033-.372.194c-.41.215-.75.57-.956 1l-.186.39a.424.424 0 0 1-.383.247.424.424 0 0 1-.383-.247l-.186-.39a2.204 2.204 0 0 0-.956-1l-.372-.194a.448.448 0 0 1-.236-.4c0-.171.09-.325.236-.401l.372-.195c.411-.215.75-.57.956-1l.186-.389a.424.424 0 0 1 .383-.248c.163 0 .31.095.383.248l.186.389c.206.43.545.785.956 1l.372.195c.146.076.237.23.237.4 0 .171-.09.324-.237.4Zm-1.897-1.427a2.997 2.997 0 0 1-.98 1.026c.399.254.738.608.98 1.026.243-.418.581-.772.98-1.026a2.997 2.997 0 0 1-.98-1.026Z" stroke-linejoin="round" stroke-linecap="round" stroke-width=".5" stroke="#191919" fill="transparent"/></g></g></svg>