<svg xmlns="http://www.w3.org/2000/svg" width="35" height="34" viewBox="3 3 35 34"><g data-name="Frame 5"><g data-name="Vector"><path d="M38 25.771v1.741c0 .707-.573 1.282-1.278 1.282a.249.249 0 0 0-.236.168 7.271 7.271 0 0 1-.369.894.25.25 0 0 0 .048.288c.498.5.498 1.313 0 1.813l-1.227 1.23c-.498.5-1.309.5-1.807 0l-.002-.002a.249.249 0 0 0-.285-.046 7.194 7.194 0 0 1-.891.37.25.25 0 0 0-.168.238c0 .706-.573 1.281-1.278 1.281h-1.735a1.281 1.281 0 0 1-1.277-1.281.25.25 0 0 0-.168-.237 7.19 7.19 0 0 1-.891-.37.25.25 0 0 0-.292.052 1.276 1.276 0 0 1-1.803-.005l-1.226-1.23a1.286 1.286 0 0 1 0-1.813.25.25 0 0 0 .047-.288 7.247 7.247 0 0 1-.369-.894.248.248 0 0 0-.236-.168 1.281 1.281 0 0 1-1.278-1.282v-1.74a1.28 1.28 0 0 1 1.278-1.282.249.249 0 0 0 .236-.169 7.27 7.27 0 0 1 .37-.893.25.25 0 0 0-.048-.289 1.286 1.286 0 0 1 0-1.812l1.226-1.231a1.276 1.276 0 0 1 1.807 0 .249.249 0 0 0 .288.048c.287-.143.587-.267.89-.37a.25.25 0 0 0 .169-.238c0-.706.573-1.281 1.277-1.281h1.735c.705 0 1.278.575 1.278 1.281a.25.25 0 0 0 .168.238c.304.103.603.227.89.37.096.047.21.029.286-.046l.002-.002c.498-.5 1.309-.5 1.807 0l1.227 1.23c.498.5.498 1.314 0 1.813a.25.25 0 0 0-.048.289c.142.288.267.588.37.893.033.101.128.169.236.169.704 0 1.277.575 1.277 1.281Zm-1.027 0a.251.251 0 0 0-.25-.25c-.549 0-1.035-.35-1.21-.87a6.21 6.21 0 0 0-.316-.766 1.283 1.283 0 0 1 .241-1.474.252.252 0 0 0 0-.356l-1.226-1.23a.25.25 0 0 0-.353-.002l-.002.002a1.273 1.273 0 0 1-1.47.242 6.16 6.16 0 0 0-.763-.317 1.279 1.279 0 0 1-.866-1.214.251.251 0 0 0-.25-.25h-1.736a.251.251 0 0 0-.25.25c0 .55-.349 1.038-.867 1.214-.26.088-.517.195-.763.317a1.273 1.273 0 0 1-1.466-.239l-.004-.003a.25.25 0 0 0-.355 0l-1.226 1.23a.252.252 0 0 0 0 .356c.388.389.485.981.242 1.474a6.207 6.207 0 0 0-.317.766c-.175.52-.66.87-1.21.87a.251.251 0 0 0-.25.25v1.741c0 .139.113.251.25.251.55 0 1.035.35 1.21.87.088.261.195.519.317.766a1.283 1.283 0 0 1-.242 1.474.252.252 0 0 0 0 .355l1.227 1.231a.25.25 0 0 0 .354 0l.004-.004a1.274 1.274 0 0 1 1.465-.239c.247.123.504.23.764.318.518.175.867.663.867 1.213 0 .139.112.251.25.251h1.735c.138 0 .25-.112.25-.25 0-.55.349-1.038.867-1.214.26-.088.518-.195.764-.318a1.273 1.273 0 0 1 1.47.243l.001.002a.25.25 0 0 0 .353-.002l1.227-1.23a.252.252 0 0 0 0-.356 1.283 1.283 0 0 1-.242-1.474c.122-.247.228-.505.316-.766.175-.52.661-.87 1.21-.87.138 0 .25-.112.25-.25V25.77Z" fill="#191919" fill-rule="evenodd"/><path d="M38 25.771v1.741c0 .707-.573 1.282-1.278 1.282a.249.249 0 0 0-.236.168 7.271 7.271 0 0 1-.369.894.25.25 0 0 0 .048.288c.498.5.498 1.313 0 1.813l-1.227 1.23c-.498.5-1.309.5-1.807 0l-.002-.002a.249.249 0 0 0-.285-.046 7.194 7.194 0 0 1-.891.37.25.25 0 0 0-.168.238c0 .706-.573 1.281-1.278 1.281h-1.735a1.281 1.281 0 0 1-1.277-1.281.25.25 0 0 0-.168-.237 7.19 7.19 0 0 1-.891-.37.25.25 0 0 0-.292.052 1.276 1.276 0 0 1-1.803-.005l-1.226-1.23a1.286 1.286 0 0 1 0-1.813.25.25 0 0 0 .047-.288 7.247 7.247 0 0 1-.369-.894.248.248 0 0 0-.236-.168 1.281 1.281 0 0 1-1.278-1.282v-1.74a1.28 1.28 0 0 1 1.278-1.282.249.249 0 0 0 .236-.169 7.27 7.27 0 0 1 .37-.893.25.25 0 0 0-.048-.289 1.286 1.286 0 0 1 0-1.812l1.226-1.231a1.276 1.276 0 0 1 1.807 0 .249.249 0 0 0 .288.048c.287-.143.587-.267.89-.37a.25.25 0 0 0 .169-.238c0-.706.573-1.281 1.277-1.281h1.735c.705 0 1.278.575 1.278 1.281a.25.25 0 0 0 .168.238c.304.103.603.227.89.37.096.047.21.029.286-.046l.002-.002c.498-.5 1.309-.5 1.807 0l1.227 1.23c.498.5.498 1.314 0 1.813a.25.25 0 0 0-.048.289c.142.288.267.588.37.893.033.101.128.169.236.169.704 0 1.277.575 1.277 1.281Zm-1.027 0a.251.251 0 0 0-.25-.25c-.549 0-1.035-.35-1.21-.87a6.21 6.21 0 0 0-.316-.766 1.283 1.283 0 0 1 .241-1.474.252.252 0 0 0 0-.356l-1.226-1.23a.25.25 0 0 0-.353-.002l-.002.002a1.273 1.273 0 0 1-1.47.242 6.16 6.16 0 0 0-.763-.317 1.279 1.279 0 0 1-.866-1.214.251.251 0 0 0-.25-.25h-1.736a.251.251 0 0 0-.25.25c0 .55-.349 1.038-.867 1.214-.26.088-.517.195-.763.317a1.273 1.273 0 0 1-1.466-.239l-.004-.003a.25.25 0 0 0-.355 0l-1.226 1.23a.252.252 0 0 0 0 .356c.388.389.485.981.242 1.474a6.207 6.207 0 0 0-.317.766c-.175.52-.66.87-1.21.87a.251.251 0 0 0-.25.25v1.741c0 .139.113.251.25.251.55 0 1.035.35 1.21.87.088.261.195.519.317.766a1.283 1.283 0 0 1-.242 1.474.252.252 0 0 0 0 .355l1.227 1.231a.25.25 0 0 0 .354 0l.004-.004a1.274 1.274 0 0 1 1.465-.239c.247.123.504.23.764.318.518.175.867.663.867 1.213 0 .139.112.251.25.251h1.735c.138 0 .25-.112.25-.25 0-.55.349-1.038.867-1.214.26-.088.518-.195.764-.318a1.273 1.273 0 0 1 1.47.243l.001.002a.25.25 0 0 0 .353-.002l1.227-1.23a.252.252 0 0 0 0-.356 1.283 1.283 0 0 1-.242-1.474c.122-.247.228-.505.316-.766.175-.52.661-.87 1.21-.87.138 0 .25-.112.25-.25V25.77Z" stroke-linejoin="round" stroke-linecap="round" stroke="#191919" fill="transparent"/></g><g data-name="Vector"><path d="M33.527 26.642c0 2.15-1.744 3.9-3.887 3.9a3.898 3.898 0 0 1-3.888-3.9c0-2.15 1.744-3.9 3.888-3.9a3.898 3.898 0 0 1 3.887 3.9Zm-1.027 0a2.868 2.868 0 0 0-2.86-2.87 2.868 2.868 0 0 0-2.86 2.87 2.868 2.868 0 0 0 2.86 2.87 2.868 2.868 0 0 0 2.86-2.87Z" fill="#191919" fill-rule="evenodd"/><path d="M33.527 26.642c0 2.15-1.744 3.9-3.887 3.9a3.898 3.898 0 0 1-3.888-3.9c0-2.15 1.744-3.9 3.888-3.9a3.898 3.898 0 0 1 3.887 3.9Zm-1.027 0a2.868 2.868 0 0 0-2.86-2.87 2.868 2.868 0 0 0-2.86 2.87 2.868 2.868 0 0 0 2.86 2.87 2.868 2.868 0 0 0 2.86-2.87Z" stroke-linejoin="round" stroke-linecap="round" stroke="#191919" fill="transparent"/></g><g data-name="Vector"><path d="M23.171 33.848a.516.516 0 0 1-.188.704l-3.606 2.089a2.681 2.681 0 0 1-2.681 0L4.34 29.485A2.699 2.699 0 0 1 3 27.155v-14.31c0-.964.523-1.857 1.34-2.33l12.356-7.156a2.682 2.682 0 0 1 2.681 0l12.355 7.156a2.706 2.706 0 0 1 1.34 2.33v5.25a.514.514 0 1 1-1.026 0v-5.25c0-.117-.013-.232-.037-.343l-13.46 7.795v15.591c.109-.035.214-.081.315-.14l3.606-2.088a.513.513 0 0 1 .701.188Zm-5.648-13.55-13.46-7.796a1.655 1.655 0 0 0-.036.342v14.312c0 .59.317 1.141.827 1.437l12.355 7.156c.1.058.206.104.314.14V20.296Zm.513-.893 13.46-7.795a1.644 1.644 0 0 0-.278-.203L18.864 4.251a1.655 1.655 0 0 0-1.655 0L4.854 11.407c-.1.058-.193.126-.277.203l13.46 7.795Z" fill="#191919" fill-rule="evenodd"/><path d="M23.171 33.848a.516.516 0 0 1-.188.704l-3.606 2.089a2.681 2.681 0 0 1-2.681 0L4.34 29.485A2.699 2.699 0 0 1 3 27.155v-14.31c0-.964.523-1.857 1.34-2.33l12.356-7.156a2.682 2.682 0 0 1 2.681 0l12.355 7.156a2.706 2.706 0 0 1 1.34 2.33v5.25a.514.514 0 1 1-1.026 0v-5.25c0-.117-.013-.232-.037-.343l-13.46 7.795v15.591c.109-.035.214-.081.315-.14l3.606-2.088a.513.513 0 0 1 .701.188Zm-5.648-13.55-13.46-7.796a1.655 1.655 0 0 0-.036.342v14.312c0 .59.317 1.141.827 1.437l12.355 7.156c.1.058.206.104.314.14V20.296Zm.513-.893 13.46-7.795a1.644 1.644 0 0 0-.278-.203L18.864 4.251a1.655 1.655 0 0 0-1.655 0L4.854 11.407c-.1.058-.193.126-.277.203l13.46 7.795Z" stroke-linejoin="round" stroke-linecap="round" stroke="#191919" fill="transparent"/></g></g></svg>