<svg xmlns="http://www.w3.org/2000/svg" width="35" height="38" viewBox="3 1 35 38"><g data-name="Frame 3"><g data-name="https://www.flaticon.com/free-icon/idea_554745?related_id=554745"><path d="M31.952 18.215a11.08 11.08 0 0 1-1.58 5.706 11.429 11.429 0 0 1-4.146 4.036c-.96.545-1.532 1.481-1.532 2.505v4.412c0 .963-.796 1.746-1.775 1.746h-.039v.633c0 .963-.796 1.747-1.775 1.747h-1.21c-.979 0-1.775-.783-1.775-1.747v-.633h-.04c-.978 0-1.775-.783-1.775-1.746v-4.507c0-.974-.545-1.86-1.46-2.371a11.382 11.382 0 0 1-4.425-4.44 11.083 11.083 0 0 1-1.329-6.333c.223-2.557 1.364-4.994 3.212-6.862a11.478 11.478 0 0 1 6.886-3.34c3.309-.362 6.486.631 8.945 2.797a11.203 11.203 0 0 1 3.818 8.397ZM21.75 36.62h-2.497v.633c0 .35.288.634.643.634h1.21a.64.64 0 0 0 .644-.634v-.633Zm1.814-4.76h-6.126v1.267h3.668c.312 0 .566.25.566.557a.561.561 0 0 1-.566.556h-3.668v.634c0 .349.289.633.644.633h4.838a.64.64 0 0 0 .644-.633v-.634h-.04a.561.561 0 0 1-.565-.556c0-.308.253-.557.566-.557h.039v-1.266Zm3.494-5.821a1.854 1.854 0 0 0-.361-.21l-1.569-.685a8.477 8.477 0 0 1-4.627 1.362c-1.66 0-3.253-.47-4.628-1.361l-1.568.685a1.864 1.864 0 0 0-.36.21c.455.367.943.699 1.461.988 1.253.701 2.032 1.98 2.032 3.339v.38h6.126v-.286c0-1.425.784-2.721 2.096-3.468.494-.28.96-.6 1.398-.954Zm-9.197-8.73c-.33.299-.675.518-1.028.656v.25c0 1.99 1.646 3.608 3.668 3.608 2.022 0 3.668-1.618 3.668-3.608V17.21c-1.561.185-4.125.154-5.882-1.575a.55.55 0 0 1 0-.787.572.572 0 0 1 .8 0c.573.564 2.273 1.805 5.661 1.146.015-.003.026-.018.026-.036v-.122c0-1.989-1.646-3.608-3.668-3.608h-1.21c-2.022 0-3.667 1.619-3.667 3.608v1.101c0 .027.005.043.01.05a.093.093 0 0 0 .014-.002c.275-.07.557-.237.84-.494a.572.572 0 0 1 .8.032.55.55 0 0 1-.032.786Zm-.268 7.083-.449.197a7.348 7.348 0 0 0 3.357.804c1.18 0 2.325-.277 3.357-.804l-.45-.197a1.747 1.747 0 0 1-1.054-1.596v-.226a4.84 4.84 0 0 1-1.853.366 4.84 4.84 0 0 1-1.853-.366v.226c0 .69-.414 1.316-1.055 1.596Zm13.228-6.177c0-2.884-1.254-5.643-3.44-7.568a10.298 10.298 0 0 0-6.866-2.585 10.337 10.337 0 0 0-7.4 3.075c-1.666 1.685-2.695 3.88-2.895 6.181a9.989 9.989 0 0 0 1.195 5.707 10.174 10.174 0 0 0 1.687 2.253c.223-.19.474-.347.744-.465l3.288-1.438a.633.633 0 0 0 .382-.579v-.888a4.686 4.686 0 0 1-1.814-3.693v-.246a1.16 1.16 0 0 1-.605-1.033v-1.1c0-2.604 2.153-4.722 4.8-4.722h1.209c2.646 0 4.8 2.118 4.8 4.721v.122c0 .428-.242.81-.605 1.008v1.25c0 1.494-.71 2.827-1.815 3.693v.888c0 .25.15.477.382.579l3.288 1.438c.27.117.52.276.743.465.574-.58 1.079-1.224 1.499-1.924a9.98 9.98 0 0 0 1.423-5.139Z" fill="#191919" fill-rule="evenodd"/><path d="M31.952 18.215a11.08 11.08 0 0 1-1.58 5.706 11.429 11.429 0 0 1-4.146 4.036c-.96.545-1.532 1.481-1.532 2.505v4.412c0 .963-.796 1.746-1.775 1.746h-.039v.633c0 .963-.796 1.747-1.775 1.747h-1.21c-.979 0-1.775-.783-1.775-1.747v-.633h-.04c-.978 0-1.775-.783-1.775-1.746v-4.507c0-.974-.545-1.86-1.46-2.371a11.382 11.382 0 0 1-4.425-4.44 11.083 11.083 0 0 1-1.329-6.333c.223-2.557 1.364-4.994 3.212-6.862a11.478 11.478 0 0 1 6.886-3.34c3.309-.362 6.486.631 8.945 2.797a11.203 11.203 0 0 1 3.818 8.397ZM21.75 36.62h-2.497v.633c0 .35.288.634.643.634h1.21a.64.64 0 0 0 .644-.634v-.633Zm1.814-4.76h-6.126v1.267h3.668c.312 0 .566.25.566.557a.561.561 0 0 1-.566.556h-3.668v.634c0 .349.289.633.644.633h4.838a.64.64 0 0 0 .644-.633v-.634h-.04a.561.561 0 0 1-.565-.556c0-.308.253-.557.566-.557h.039v-1.266Zm3.494-5.821a1.854 1.854 0 0 0-.361-.21l-1.569-.685a8.477 8.477 0 0 1-4.627 1.362c-1.66 0-3.253-.47-4.628-1.361l-1.568.685a1.864 1.864 0 0 0-.36.21c.455.367.943.699 1.461.988 1.253.701 2.032 1.98 2.032 3.339v.38h6.126v-.286c0-1.425.784-2.721 2.096-3.468.494-.28.96-.6 1.398-.954Zm-9.197-8.73c-.33.299-.675.518-1.028.656v.25c0 1.99 1.646 3.608 3.668 3.608 2.022 0 3.668-1.618 3.668-3.608V17.21c-1.561.185-4.125.154-5.882-1.575a.55.55 0 0 1 0-.787.572.572 0 0 1 .8 0c.573.564 2.273 1.805 5.661 1.146.015-.003.026-.018.026-.036v-.122c0-1.989-1.646-3.608-3.668-3.608h-1.21c-2.022 0-3.667 1.619-3.667 3.608v1.101c0 .027.005.043.01.05a.093.093 0 0 0 .014-.002c.275-.07.557-.237.84-.494a.572.572 0 0 1 .8.032.55.55 0 0 1-.032.786Zm-.268 7.083-.449.197a7.348 7.348 0 0 0 3.357.804c1.18 0 2.325-.277 3.357-.804l-.45-.197a1.747 1.747 0 0 1-1.054-1.596v-.226a4.84 4.84 0 0 1-1.853.366 4.84 4.84 0 0 1-1.853-.366v.226c0 .69-.414 1.316-1.055 1.596Zm13.228-6.177c0-2.884-1.254-5.643-3.44-7.568a10.298 10.298 0 0 0-6.866-2.585 10.337 10.337 0 0 0-7.4 3.075c-1.666 1.685-2.695 3.88-2.895 6.181a9.989 9.989 0 0 0 1.195 5.707 10.174 10.174 0 0 0 1.687 2.253c.223-.19.474-.347.744-.465l3.288-1.438a.633.633 0 0 0 .382-.579v-.888a4.686 4.686 0 0 1-1.814-3.693v-.246a1.16 1.16 0 0 1-.605-1.033v-1.1c0-2.604 2.153-4.722 4.8-4.722h1.209c2.646 0 4.8 2.118 4.8 4.721v.122c0 .428-.242.81-.605 1.008v1.25c0 1.494-.71 2.827-1.815 3.693v.888c0 .25.15.477.382.579l3.288 1.438c.27.117.52.276.743.465.574-.58 1.079-1.224 1.499-1.924a9.98 9.98 0 0 0 1.423-5.139Z" stroke-linejoin="round" stroke-linecap="round" stroke="#191919" fill="transparent"/></g><g data-name="https://www.flaticon.com/free-icon/idea_554745?related_id=554745"><path d="M21.066 1.557v3.57a.561.561 0 0 1-.566.556.561.561 0 0 1-.566-.557v-3.57c0-.307.253-.556.566-.556.313 0 .566.25.566.557Z" fill="#191919" fill-rule="evenodd"/><path d="M21.066 1.557v3.57a.561.561 0 0 1-.566.556.561.561 0 0 1-.566-.557v-3.57c0-.307.253-.556.566-.556.313 0 .566.25.566.557Z" stroke-linejoin="round" stroke-linecap="round" stroke="#191919" fill="transparent"/></g><g data-name="https://www.flaticon.com/free-icon/idea_554745?related_id=554745"><path d="M38 18.215a.561.561 0 0 1-.566.557h-3.629a.561.561 0 0 1-.565-.557c0-.307.253-.556.565-.556h3.63c.312 0 .565.249.565.556Z" fill="#191919" fill-rule="evenodd"/><path d="M38 18.215a.561.561 0 0 1-.566.557h-3.629a.561.561 0 0 1-.565-.557c0-.307.253-.556.565-.556h3.63c.312 0 .565.249.565.556Z" stroke-linejoin="round" stroke-linecap="round" stroke="#191919" fill="transparent"/></g><g data-name="https://www.flaticon.com/free-icon/idea_554745?related_id=554745"><path d="M7.76 18.215a.561.561 0 0 1-.565.557h-3.63A.561.561 0 0 1 3 18.215c0-.307.253-.556.566-.556h3.629c.312 0 .565.249.565.556Z" fill="#191919" fill-rule="evenodd"/><path d="M7.76 18.215a.561.561 0 0 1-.565.557h-3.63A.561.561 0 0 1 3 18.215c0-.307.253-.556.566-.556h3.629c.312 0 .565.249.565.556Z" stroke-linejoin="round" stroke-linecap="round" stroke="#191919" fill="transparent"/></g><g data-name="https://www.flaticon.com/free-icon/idea_554745?related_id=554745"><path d="m32.874 6.83-2.566 2.524a.569.569 0 0 1-.8 0 .55.55 0 0 1 0-.788l2.566-2.524a.572.572 0 0 1 .8 0 .55.55 0 0 1 0 .787Z" fill="#191919" fill-rule="evenodd"/><path d="m32.874 6.83-2.566 2.524a.569.569 0 0 1-.8 0 .55.55 0 0 1 0-.788l2.566-2.524a.572.572 0 0 1 .8 0 .55.55 0 0 1 0 .787Z" stroke-linejoin="round" stroke-linecap="round" stroke="#191919" fill="transparent"/></g><g data-name="https://www.flaticon.com/free-icon/idea_554745?related_id=554745"><path d="m11.492 27.864-2.566 2.524a.569.569 0 0 1-.8 0 .55.55 0 0 1 0-.787l2.566-2.524a.572.572 0 0 1 .8 0 .55.55 0 0 1 0 .787Z" fill="#191919" fill-rule="evenodd"/><path d="m11.492 27.864-2.566 2.524a.569.569 0 0 1-.8 0 .55.55 0 0 1 0-.787l2.566-2.524a.572.572 0 0 1 .8 0 .55.55 0 0 1 0 .787Z" stroke-linejoin="round" stroke-linecap="round" stroke="#191919" fill="transparent"/></g><g data-name="https://www.flaticon.com/free-icon/idea_554745?related_id=554745"><path d="M32.874 30.388a.569.569 0 0 1-.8 0l-2.566-2.524a.55.55 0 0 1 0-.787.572.572 0 0 1 .8 0l2.566 2.524a.55.55 0 0 1 0 .787Z" fill="#191919" fill-rule="evenodd"/><path d="M32.874 30.388a.569.569 0 0 1-.8 0l-2.566-2.524a.55.55 0 0 1 0-.787.572.572 0 0 1 .8 0l2.566 2.524a.55.55 0 0 1 0 .787Z" stroke-linejoin="round" stroke-linecap="round" stroke="#191919" fill="transparent"/></g><g data-name="https://www.flaticon.com/free-icon/idea_554745?related_id=554745"><path d="M11.492 9.354a.569.569 0 0 1-.8 0L8.126 6.829a.55.55 0 0 1 0-.787.572.572 0 0 1 .8 0l2.566 2.524a.55.55 0 0 1 0 .788Z" fill="#191919" fill-rule="evenodd"/><path d="M11.492 9.354a.569.569 0 0 1-.8 0L8.126 6.829a.55.55 0 0 1 0-.787.572.572 0 0 1 .8 0l2.566 2.524a.55.55 0 0 1 0 .788Z" stroke-linejoin="round" stroke-linecap="round" stroke="#191919" fill="transparent"/></g></g></svg>