<svg xmlns="http://www.w3.org/2000/svg" width="60" height="60" viewBox="360 587.95 60 60"><g data-name="Icon"><path d="M360 617.9a30 30 0 1 1 0 .1z" fill="#191919" fill-rule="evenodd" data-name="Ellipse 10"/><g data-name="fluent:location-48-filled"><g data-name="Group"><path d="M397.507 621.24a8.519 8.519 0 0 1-.91 1.37l-.107.13h-.001l-.008.01h.019l-5.045 5.355a2 2 0 0 1-2.911 0l-5.044-5.355h.019l-.009-.01-.01-.013a8.461 8.461 0 0 1-2-5.477 8.5 8.5 0 1 1 16.007 3.99Zm-5.384-1.619a3 3 0 1 0-4.242-4.242 3 3 0 0 0 4.242 4.242Z" fill="#fff" fill-rule="evenodd" data-name="Vector"/></g></g></g></svg>